<?xml version="1.0" standalone="no"?>
<!DOCTYPE svg PUBLIC "-//W3C//DTD SVG 20010904//EN"
 "http://www.w3.org/TR/2001/REC-SVG-20010904/DTD/svg10.dtd">
<svg version="1.0" xmlns="http://www.w3.org/2000/svg"
 width="174.000000pt" height="174.000000pt" viewBox="0 0 174.000000 174.000000"
 preserveAspectRatio="xMidYMid meet">
<metadata>
Created by potrace 1.15, written by Peter Selinger 2001-2017
</metadata>
<g transform="translate(0.000000,174.000000) scale(0.100000,-0.100000)"
fill="#000000" stroke="none">
<path d="M725 1307 c-138 -46 -247 -151 -291 -279 -15 -45 -16 -46 -73 -57
-124 -24 -211 -128 -211 -249 0 -74 20 -123 75 -179 83 -85 80 -84 642 -81
474 3 479 3 536 26 74 30 150 104 185 179 22 49 27 72 27 143 0 103 -29 174
-97 242 -71 72 -194 117 -278 103 -32 -5 -40 -1 -89 46 -31 30 -81 64 -120 82
-57 26 -80 31 -166 33 -65 3 -114 -1 -140 -9z m605 -324 c0 -4 -84 -92 -187
-195 l-188 -188 -202 0 -203 0 0 188 c0 104 3 192 7 195 9 10 773 9 773 0z"/>
<path d="M612 900 c-12 -5 -27 -22 -33 -37 -13 -34 12 -72 59 -87 70 -24 67
-61 -5 -53 -34 3 -46 1 -50 -10 -3 -8 0 -19 8 -24 19 -12 96 -11 120 1 13 7
19 7 19 0 0 -5 14 -10 30 -10 20 0 30 5 30 15 0 11 12 15 50 15 38 0 50 -4 50
-15 0 -12 13 -15 55 -15 l55 0 0 35 c0 27 4 35 19 35 70 0 114 53 91 110 -14
34 -39 44 -115 44 l-50 1 -1 -83 c-1 -46 -4 -85 -6 -87 -2 -3 -10 12 -17 33
-51 142 -51 142 -81 142 -26 0 -30 -6 -55 -75 -28 -75 -38 -88 -49 -60 -3 8
-27 25 -53 38 -64 30 -64 53 -2 50 36 -2 49 1 53 14 4 9 5 18 3 20 -10 9 -104
12 -125 3z"/>
</g>
</svg>
